<svg xmlns="http://www.w3.org/2000/svg" width="289" height="340" viewBox="0 0 289 340"><g fill="none"><g fill="#FF9800"><path d="M0 50C0 23 22 1 49 1L290 1C317 1 339 23 339 50L339 290C339 317 317 339 290 339L49 339C22 339 0 317 0 290L0 50 0 50ZM170 219L170 339 290 339C317 339 339 317 339 290L339 50C339 23 317 1 290 1L170 1 170 46C149 47 137 63 129 70 72 70 77 109 77 110 23 117 51 167 69 169 65 197 105 208 106 207 128 243 167 217 167 218 168 218 169 218 170 219L170 219ZM67 293C70 293 72 291 72 288 72 285 70 283 67 283 64 283 62 285 62 288 62 291 64 293 67 293L67 293ZM85 283C89 283 93 279 93 275 93 271 89 268 85 268 81 268 77 271 77 275 77 279 81 283 85 283L85 283ZM116 273C126 273 134 265 134 255 134 245 126 237 116 237 106 237 98 245 98 255 98 265 106 273 116 273L116 273ZM170 219L170 46C184 45 203 50 228 70 228 70 268 71 274 110 283 117 313 171 247 182 235 199 223 237 170 219L170 219Z"/></g></g></svg>
