<svg xmlns="http://www.w3.org/2000/svg" width="751" height="520" viewBox="0 0 751 520" version="0"><style>.a{fill:#FF9800;}.b{fill:#34495E;}</style><g style="fill-rule:evenodd;fill:none"><g class="a"><path d="M252.2 49.6C252.2 22.6 274.1 0.7 301.2 0.7L541.9 0.7C569 0.7 590.9 22.6 590.9 49.6L590.9 290.4C590.9 317.4 568.9 339.4 541.9 339.4L301.2 339.4C274.1 339.4 252.2 317.4 252.2 290.4L252.2 49.6 252.2 49.6ZM421.5 218.5L421.5 339.4 541.9 339.4C569 339.4 590.9 317.4 590.9 290.4L590.9 49.6C590.9 22.6 569 0.7 541.9 0.7L421.5 0.7 421.5 45.7C400.7 47.4 389.3 63 381.1 69.5 323.6 70.4 329 108.8 329 110 275.4 117.4 303.5 166.8 321 169.3 317 197.5 357.2 207.7 357.7 207.4 380 243 418.8 217.2 418.8 217.6 419.8 217.9 420.7 218.2 421.5 218.5L421.5 218.5ZM318.9 293.2C321.7 293.2 324 290.9 324 288 324 285.2 321.7 282.9 318.9 282.9 316.1 282.9 313.8 285.2 313.8 288 313.8 290.9 316.1 293.2 318.9 293.2L318.9 293.2ZM336.9 282.9C341.1 282.9 344.6 279.5 344.6 275.2 344.6 271 341.1 267.5 336.9 267.5 332.6 267.5 329.2 271 329.2 275.2 329.2 279.5 332.6 282.9 336.9 282.9L336.9 282.9ZM367.7 272.7C377.6 272.7 385.6 264.6 385.6 254.7 385.6 244.8 377.6 236.7 367.7 236.7 357.7 236.7 349.7 244.8 349.7 254.7 349.7 264.6 357.7 272.7 367.7 272.7L367.7 272.7ZM421.5 218.5L421.5 45.7C435.9 44.5 454.7 49.9 479.9 69.5 480 69.9 520 71 526.4 110 535.4 116.7 565.1 170.9 498.6 182 486.8 198.6 475.4 237.3 421.5 218.5L421.5 218.5Z"/></g><path d="M229.8 519.7C222.4 519.7 216.8 517.5 213 513.1 209.1 508.7 207.2 503.1 207.2 496.4 207.2 489.4 209.4 483.6 213.7 478.8 218 474.1 223.6 471.7 230.5 471.7 234 471.7 237.3 472.2 240.6 473.3 243.9 474.4 245.8 474.9 246.3 475 247 478.9 247.5 482.6 247.9 486.1 247.4 486.4 246.9 486.5 246.2 486.4 243.6 477.9 238.3 473.6 230.2 473.7 225.7 473.7 221.8 475.7 218.5 479.9 215.3 484.1 213.7 489.1 213.7 495 213.7 498.6 214.3 502.1 215.5 505.3 216.6 508.5 218.6 511.3 221.2 513.5 223.8 515.7 226.9 516.8 230.4 516.8 233.7 516.8 236.7 516.2 239.3 514.9 242 513.7 244.5 511.7 247.1 508.9 247.8 508.9 248.3 509.3 248.7 510 246.4 513.1 243.5 515.5 240.1 517.2 236.8 518.9 233.3 519.7 229.8 519.7L229.8 519.7 229.8 519.7ZM266 511.2C266 514 266.4 515.8 267.1 516.5 267.9 517.2 269.5 517.6 272.1 517.7 272.7 518.3 272.7 518.8 272.1 519.3 271.1 519.3 269.6 519.3 267.7 519.2 265.8 519 264.2 519 263 519 261.6 519 260 519 258.1 519.2 256.2 519.3 254.7 519.3 253.7 519.3 253.5 519.1 253.4 518.8 253.4 518.5 253.4 518.1 253.5 517.9 253.7 517.7 256.3 517.6 258 517.2 258.7 516.5 259.4 515.8 259.8 514 259.9 511.2 260.1 503.2 260.2 498.1 260.2 495.9 260.2 493.6 260.1 488.4 259.9 480.5 259.8 477.6 259.4 475.8 258.7 475.1 258 474.4 256.3 474 253.7 473.9 253.5 473.7 253.4 473.4 253.4 473.1 253.4 472.7 253.5 472.5 253.7 472.3 254.8 472.3 256.2 472.4 258.1 472.5 260 472.6 261.5 472.6 262.8 472.6 264.2 472.6 265.8 472.6 267.7 472.5 269.7 472.4 271.1 472.3 272.1 472.3 272.7 472.9 272.7 473.4 272.1 473.9 269.5 474 267.8 474.4 267.1 475.1 266.4 475.8 266 477.6 266 480.5 265.8 485.5 265.8 489.7 265.8 493 266.2 493.3 270.2 493.5 277.6 493.5 286 493.5 290.4 493.3 290.8 493 290.8 488 290.7 483.8 290.6 480.5 290.6 477.6 290.2 475.8 289.4 475.1 288.6 474.4 286.9 474 284.3 473.9 284.1 473.7 284 473.4 284 473.1 284 472.7 284.1 472.5 284.3 472.3 285.3 472.3 286.8 472.4 288.7 472.5 290.7 472.6 292.3 472.6 293.6 472.6 294.9 472.6 296.6 472.6 298.5 472.5 300.4 472.4 301.9 472.3 302.9 472.3 303.5 472.9 303.5 473.4 302.9 473.9 300.3 474 298.6 474.4 297.8 475.1 297 475.8 296.6 477.6 296.6 480.5 296.5 484.5 296.5 489.7 296.5 496 296.5 502.2 296.5 507.2 296.6 511.2 296.6 514 297 515.8 297.8 516.5 298.6 517.2 300.3 517.6 302.9 517.7 303.5 518.3 303.5 518.8 302.9 519.3 301.9 519.3 300.4 519.3 298.4 519.2 296.5 519 294.9 519 293.6 519 292.2 519 290.6 519 288.7 519.2 286.8 519.3 285.3 519.3 284.3 519.3 284.1 519.1 284 518.8 284 518.5 284 518.1 284.1 517.9 284.3 517.7 286.9 517.6 288.6 517.2 289.4 516.5 290.2 515.8 290.6 514 290.6 511.2 290.7 509.1 290.7 506.3 290.7 502.8 290.8 499.3 290.8 497 290.8 495.9 290.1 495.5 285.7 495.4 277.5 495.3 270.4 495.3 266.5 495.5 265.8 495.9 265.8 500 265.8 505.1 266 511.2L266 511.2 266 511.2ZM324.4 499L337.2 499 330.3 479.1 330.1 479.1 322.5 497.7C322.4 498.1 322.4 498.4 322.8 498.6 323.1 498.9 323.6 499 324.4 499L324.4 499 324.4 499ZM316.2 514C316.1 514.6 316 515 316 515.3 316 515.7 316.1 516 316.4 516.3 316.7 516.5 317 516.8 317.3 516.9 317.5 517.1 317.9 517.2 318.4 517.3 318.9 517.4 319.4 517.5 319.8 517.6 320.2 517.6 320.6 517.7 321.2 517.7 321.4 517.9 321.5 518.2 321.5 518.5 321.5 518.9 321.4 519.1 321.2 519.3 320.5 519.3 319.3 519.3 317.6 519.1 315.9 519 314.5 519 313.4 519 312.4 519 311.1 519 309.6 519.1 308.2 519.3 307 519.3 306.3 519.3 306.1 519.1 306 518.9 306 518.5 306 518.2 306.1 517.9 306.3 517.7 308 517.6 309.5 517.2 310.6 516.5 311.6 515.8 312.6 514.4 313.5 512.4L330.1 473.1C331 473.1 332.3 472.7 333.9 471.7L348.9 513.5C349.2 514.4 349.6 515.1 350 515.7 350.4 516.2 351 516.6 351.6 516.9 352.3 517.2 352.8 517.4 353.3 517.4 353.8 517.5 354.5 517.6 355.4 517.7 355.6 517.9 355.7 518.2 355.7 518.5 355.7 518.9 355.6 519.1 355.4 519.3 354.7 519.3 353.4 519.3 351.4 519.1 349.4 519 347.8 519 346.7 519 345.6 519 343.9 519 341.6 519.2 339.3 519.3 337.8 519.3 337.3 519.3 337.1 519.1 336.9 518.9 336.9 518.5 336.9 518.2 337.1 517.9 337.3 517.7 337.4 517.7 337.7 517.7 338 517.7 338.5 517.6 338.9 517.6 339.1 517.6 339.4 517.6 339.7 517.5 340.1 517.5 340.5 517.4 340.8 517.3 341.1 517.3 341.3 517.2 341.5 517.1 341.8 517 342.1 516.9 342.3 516.8 342.4 516.7 342.5 516.5 342.6 516.4 342.7 516.2 342.8 516 342.8 515.7 342.8 515.4 342.8 515.2 342.7 514.9 342.6 514.5L338 501.3 323.1 501.3C322.3 501.3 321.7 501.4 321.4 501.7 321 502 320.7 502.3 320.5 502.9L316.2 514 316.2 514ZM370.6 511.2C370.7 515 372 516.9 374.7 516.9L379.9 516.9C383.4 516.9 386.1 516.1 387.8 514.4 389.5 512.8 390.8 510.5 391.6 507.5 392.1 507.4 392.7 507.5 393.3 507.9 392.9 511.3 392.3 515.1 391.4 519.3 387 519.1 384.2 519 382.9 519L367.6 519C366.9 519 365.4 519 363.2 519.1 361.1 519.3 359.4 519.3 358.2 519.3 358 519.1 357.9 518.9 357.9 518.5 357.9 518.2 358 517.9 358.2 517.7 359.7 517.6 360.7 517.5 361.4 517.4 362 517.3 362.6 517 363.2 516.6 363.7 516.1 364 515.5 364.2 514.7 364.4 513.9 364.5 512.7 364.5 511.2 364.6 505.2 364.7 500.1 364.7 495.9 364.7 491.6 364.6 486.5 364.5 480.5 364.4 478.9 364.3 477.8 364.2 476.9 364 476.1 363.7 475.5 363.2 475 362.6 474.6 362 474.3 361.4 474.2 360.7 474.1 359.7 474 358.2 473.9 358 473.7 357.9 473.5 357.9 473.1 357.9 472.8 358 472.5 358.2 472.3 359.3 472.3 360.8 472.4 362.7 472.5 364.6 472.6 366.2 472.6 367.5 472.6 368.8 472.6 370.5 472.6 372.4 472.5 374.4 472.4 375.9 472.3 376.8 472.3 377.1 472.5 377.2 472.8 377.2 473.1 377.2 473.5 377.1 473.7 376.8 473.9 375.4 474 374.4 474.1 373.7 474.2 373.1 474.3 372.5 474.6 372 475.1 371.4 475.5 371.1 476.2 370.9 477 370.7 477.8 370.6 478.9 370.6 480.5 370.5 485.3 370.4 490.5 370.4 496 370.4 497 370.5 502 370.6 511.2L370.6 511.2 370.6 511.2ZM408.4 511.2C408.5 515 409.8 516.9 412.5 516.9L417.7 516.9C421.2 516.9 423.8 516.1 425.6 514.4 427.3 512.8 428.6 510.5 429.4 507.5 429.9 507.4 430.4 507.5 431.1 507.9 430.7 511.3 430.1 515.1 429.2 519.3 424.8 519.1 421.9 519 420.7 519L405.4 519C404.6 519 403.2 519 401 519.1 398.9 519.3 397.2 519.3 396 519.3 395.8 519.1 395.7 518.9 395.7 518.5 395.7 518.2 395.8 517.9 396 517.7 397.5 517.6 398.5 517.5 399.2 517.4 399.8 517.3 400.4 517 400.9 516.6 401.5 516.1 401.8 515.5 402 514.7 402.2 513.9 402.3 512.7 402.3 511.2 402.4 505.2 402.5 500.1 402.5 495.9 402.5 491.6 402.4 486.5 402.3 480.5 402.2 478.9 402.1 477.8 402 476.9 401.8 476.1 401.5 475.5 400.9 475 400.4 474.6 399.8 474.3 399.2 474.2 398.5 474.1 397.5 474 396 473.9 395.8 473.7 395.7 473.5 395.7 473.1 395.7 472.8 395.8 472.5 396 472.3 397.1 472.3 398.5 472.4 400.5 472.5 402.4 472.6 404 472.6 405.3 472.6 406.6 472.6 408.3 472.6 410.2 472.5 412.2 472.4 413.6 472.3 414.6 472.3 414.8 472.5 414.9 472.8 415 473.1 415 473.5 414.9 473.7 414.6 473.9 413.2 474 412.2 474.1 411.5 474.2 410.9 474.3 410.3 474.6 409.8 475.1 409.2 475.5 408.9 476.2 408.7 477 408.5 477.8 408.4 478.9 408.4 480.5 408.2 485.3 408.2 490.5 408.2 496 408.2 497 408.2 502 408.4 511.2L408.4 511.2 408.4 511.2ZM454.3 493.3C457.2 493.3 459 493 459.7 492.4 460.4 491.9 460.8 490.6 460.9 488.5 461.4 488 461.9 488 462.4 488.5 462.4 489 462.4 489.9 462.3 491.3 462.2 492.7 462.2 493.8 462.2 494.7 462.2 495.5 462.2 496.4 462.3 497.5 462.4 498.6 462.4 499.6 462.4 500.3 461.9 500.9 461.4 500.9 460.9 500.3 460.8 499 460.6 498.1 460.4 497.6 460.2 497 459.6 496.5 458.6 496.1 457.7 495.7 456.2 495.5 454.3 495.5L445.9 495.4C445.8 503.8 445.9 510 446 514 446.1 516.1 447 517.1 448.7 517.1L459.9 517.1C464.2 517.1 467.4 513.7 469.4 506.8 469.9 506.6 470.5 506.8 471.1 507.1 470.4 511.6 469.5 515.7 468.5 519.3 464.6 519.1 461.6 519 459.3 519L443.3 519C442.6 519 441.1 519 438.9 519.2 436.7 519.3 435 519.3 433.9 519.3 433.7 519.1 433.6 518.8 433.6 518.5 433.6 518.1 433.7 517.9 433.9 517.7 436.5 517.6 438.2 517.2 438.9 516.5 439.5 515.8 439.9 514 440 511.2 440.1 507.2 440.2 502.2 440.2 495.9 440.2 489.6 440.1 484.4 440 480.5 439.9 477.6 439.5 475.8 438.9 475.1 438.2 474.4 436.5 474 433.9 473.9 433.7 473.7 433.6 473.4 433.6 473.1 433.6 472.7 433.7 472.5 433.9 472.3 435.1 472.3 436.7 472.4 438.9 472.5 441 472.6 442.5 472.6 443.2 472.6L464.2 472.6C464.6 472.6 465.8 472.5 467.8 472.2 468 472.2 468.1 472.2 468.1 472.4 468.4 473.8 469 477.4 469.6 483 469 483.3 468.4 483.4 467.9 483.3 467.4 481.7 467 480.5 466.7 479.8 466.4 479.1 466 478.2 465.4 477.2 464.8 476.2 464 475.5 463.1 475.2 462.3 474.8 461.2 474.6 459.9 474.6L448.7 474.6C447 474.6 446.1 475.6 446 477.7L445.9 493.4 454.3 493.3 454.3 493.3ZM514 481.3C514 479.6 513.9 478.3 513.8 477.4 513.6 476.5 513.3 475.8 512.7 475.3 512.1 474.8 511.5 474.5 510.9 474.4 510.3 474.2 509.2 474.1 507.7 473.9 507.5 473.7 507.4 473.5 507.4 473.1 507.4 472.8 507.5 472.5 507.7 472.3 508.9 472.3 510.2 472.4 511.7 472.5 513.1 472.6 514.4 472.6 515.5 472.6 516.5 472.6 517.8 472.6 519.3 472.5 520.8 472.4 522.1 472.3 523.2 472.3 523.4 472.5 523.5 472.8 523.5 473.1 523.5 473.5 523.4 473.7 523.2 473.9 521.8 474.1 520.7 474.2 520.1 474.4 519.4 474.6 518.8 474.9 518.2 475.4 517.7 475.9 517.3 476.6 517.2 477.5 517 478.4 517 479.6 517 481.3L516.9 517.5 516.9 517.9 516.9 518.3C516.9 518.4 516.9 518.5 516.9 518.7 516.9 518.8 516.9 518.9 516.8 519 516.8 519.1 516.8 519.1 516.8 519.2 516.8 519.3 516.7 519.4 516.7 519.4 516.6 519.5 516.6 519.5 516.5 519.6 516.5 519.6 516.4 519.7 516.3 519.7 516.2 519.7 516.1 519.7 516 519.7 514.9 519.7 514 519.1 513.1 518L488.1 486.3C486.8 484.7 486 483.9 485.6 483.9 485 483.9 484.7 485.1 484.7 487.5L484.8 510.4C484.8 512 484.8 513.3 485 514.2 485.1 515.1 485.5 515.8 486 516.3 486.6 516.8 487.2 517.1 487.9 517.3 488.5 517.4 489.5 517.6 491 517.7 491.2 517.9 491.3 518.2 491.3 518.5 491.3 518.9 491.2 519.1 491 519.3 489.9 519.3 488.6 519.3 487.1 519.1 485.6 519 484.4 519 483.3 519 482.3 519 481 519 479.5 519.1 478 519.3 476.7 519.3 475.6 519.3 475.4 519.1 475.3 518.9 475.3 518.5 475.3 518.2 475.4 517.9 475.6 517.7 477 517.6 478 517.4 478.7 517.2 479.4 517.1 480 516.7 480.5 516.2 481.1 515.7 481.4 515 481.6 514.1 481.7 513.3 481.8 512 481.8 510.4L481.9 479.5C481 476.1 478.9 474.4 475.9 474.2 475.6 473.9 475.5 473.7 475.5 473.3 475.5 473 475.6 472.7 475.9 472.5L485.1 472.6 509.8 504.4C510.1 504.8 510.5 505.3 510.9 505.8 511.3 506.3 511.6 506.7 511.7 507 511.9 507.2 512.1 507.5 512.3 507.7 512.5 508 512.7 508.1 512.8 508.2 513 508.3 513.1 508.4 513.2 508.4 513.8 508.4 514.1 507.6 514.1 506.2L514 481.3 514 481.3ZM552.1 471.7C555.4 471.7 558.6 472.2 561.6 473.3 564.7 474.4 566.7 475 567.8 475 568.2 477.4 568.8 481.1 569.3 486 569 486.3 568.4 486.4 567.6 486.4 565 477.9 559.5 473.6 551.1 473.7 546.5 473.7 542.4 475.8 539 479.9 535.5 484.1 533.8 489.3 533.8 495.5 533.8 497.9 534.2 500.4 535.1 503 535.9 505.6 537.2 508 538.8 510.2 540.4 512.4 542.4 514.2 545 515.7 547.5 517.1 550.4 517.8 553.4 517.8 555.3 517.8 557.2 517.4 559.2 516.7 561.2 515.9 562.8 514.9 564.1 513.7L564.1 502C564.1 500.7 563.6 499.9 562.8 499.5 561.9 499.1 560.4 498.8 558.2 498.6 558 498.4 557.9 498.1 557.9 497.6 557.9 497.2 558 496.9 558.2 496.7 559.2 496.7 560.6 496.8 562.6 496.9 564.6 497 566.1 497.1 567.1 497.1 568.2 497.1 569.3 497 570.5 496.9 571.6 496.8 572.5 496.7 573 496.7 573.3 496.9 573.4 497.2 573.4 497.6 573.4 498.1 573.3 498.4 573 498.6 571.9 498.7 571.1 499 570.5 499.5 570 500 569.7 500.8 569.7 502L569.7 511C569.7 511.8 570.1 512.4 570.9 513 565.6 517.5 559.3 519.7 551.8 519.7 544.7 519.7 538.9 517.5 534.4 513.1 529.8 508.7 527.6 503.3 527.6 496.9 527.6 491.8 528.8 487.4 531.1 483.5 533.5 479.5 536.6 476.6 540.3 474.6 544 472.7 547.9 471.7 552.1 471.7L552.1 471.7 552.1 471.7ZM599.1 493.3C602.1 493.3 603.9 493 604.6 492.4 605.2 491.9 605.6 490.6 605.7 488.5 606.3 488 606.8 488 607.3 488.5 607.3 489 607.3 489.9 607.2 491.3 607.1 492.7 607 493.8 607 494.7 607 495.5 607.1 496.4 607.2 497.5 607.3 498.6 607.3 499.6 607.3 500.3 606.8 500.9 606.2 500.9 605.7 500.3 605.6 499 605.5 498.1 605.3 497.6 605 497 604.5 496.5 603.5 496.1 602.6 495.7 601.1 495.5 599.1 495.5L590.7 495.4C590.7 503.8 590.7 510 590.9 514 591 516.1 591.8 517.1 593.5 517.1L604.7 517.1C609.1 517.1 612.3 513.7 614.2 506.8 614.8 506.6 615.3 506.8 615.9 507.1 615.2 511.6 614.4 515.7 613.3 519.3 609.5 519.1 606.4 519 604.2 519L588.2 519C587.5 519 586 519 583.8 519.2 581.6 519.3 579.9 519.3 578.7 519.3 578.5 519.1 578.4 518.8 578.4 518.5 578.4 518.1 578.5 517.9 578.7 517.7 581.4 517.6 583 517.2 583.7 516.5 584.4 515.8 584.8 514 584.9 511.2 585 507.2 585 502.2 585 495.9 585 489.6 585 484.4 584.9 480.5 584.8 477.6 584.4 475.8 583.7 475.1 583 474.4 581.4 474 578.7 473.9 578.5 473.7 578.4 473.4 578.4 473.1 578.4 472.7 578.5 472.5 578.7 472.3 579.9 472.3 581.6 472.4 583.7 472.5 585.9 472.6 587.3 472.6 588.1 472.6L609 472.6C609.5 472.6 610.7 472.5 612.6 472.2 612.8 472.2 612.9 472.2 612.9 472.4 613.3 473.8 613.8 477.4 614.5 483 613.8 483.3 613.3 483.4 612.8 483.3 612.2 481.7 611.8 480.5 611.6 479.8 611.3 479.1 610.8 478.2 610.2 477.2 609.6 476.2 608.9 475.5 608 475.2 607.1 474.8 606 474.6 604.7 474.6L593.5 474.6C591.8 474.6 591 475.6 590.9 477.7L590.7 493.4 599.1 493.3 599.1 493.3Z" fill="#999"/><path d="M660.4 427.5C660.6 435.6 661.7 440.5 663.8 442.5 665.9 444.4 670.6 445.5 677.9 445.8 679.4 447.4 679.4 448.9 677.9 450.4 674.9 450.4 670.8 450.2 665.4 449.9 660.1 449.5 655.6 449.4 652 449.4 648.3 449.4 643.7 449.5 638.3 449.9 632.8 450.2 628.7 450.4 625.9 450.4 625.4 449.7 625.1 448.9 625.1 448 625.1 447 625.4 446.3 625.9 445.8 633.3 445.5 638 444.4 640 442.5 642 440.5 643 435.6 643.2 427.5 643.7 405.3 643.9 391.1 643.9 384.9 643.9 378.4 643.7 364 643.2 341.7 643 333.7 642 328.7 640 326.7 638 324.8 633.3 323.7 625.9 323.5 625.4 322.8 625.1 322 625.1 321 625.1 320.1 625.4 319.4 625.9 318.8 628.8 318.8 633 319 638.3 319.3 643.6 319.7 648 319.8 651.6 319.8 655.3 319.8 659.9 319.7 665.4 319.3 670.9 319 675.1 318.8 677.9 318.8 679.4 320.5 679.4 322 677.9 323.5 670.5 323.7 665.8 324.8 663.7 326.7 661.7 328.7 660.6 333.7 660.4 341.7 660 356.9 659.8 369.9 659.8 380.7 667.2 380.2 673.3 377.2 678.1 371.8L710.2 336.5C713.2 333.6 714.3 331.1 713.6 329.3 712.9 327.4 711.6 326 709.7 325.2 707.8 324.3 705.4 323.7 702.6 323.5 702.1 322.8 701.8 322 701.8 321 701.8 320.1 702.1 319.4 702.6 318.8 705.5 318.8 709.5 319 714.6 319.3 719.6 319.7 723.5 319.8 726.3 319.8 729.1 319.8 732.6 319.7 736.8 319.3 740.9 319 744.5 318.8 747.4 318.8 748.9 320.5 748.9 322 747.4 323.5 736.6 324.8 727.4 329.4 720 337.3L690.5 367.6C685.8 372.4 683.5 375.7 683.6 377.5 683.6 378.8 684.4 380.5 686.1 382.5L730.2 434.7C735 440.7 741.6 444.4 749.9 445.8 751.4 447.4 751.4 448.9 749.9 450.4 746.9 450.4 743.1 450.2 738.5 449.9 733.8 449.5 730.2 449.4 727.5 449.4 725.2 449.4 723.3 449.5 721.7 449.9 720.1 450.2 718.8 450.4 717.9 450.4 717.2 450.4 716.9 450 716.9 449.2 716.4 445.2 714 440.4 709.7 434.7L678.1 394.9C673.6 389.5 667.6 386.6 659.8 386.3 659.8 397.7 660 411.4 660.4 427.5L660.4 427.5 660.4 427.5Z" class="b"/><path d="M451.1 434.9C451.2 442.3 453.9 446 459 446L469.1 446C475.9 446 480.9 444.4 484.3 441.2 487.6 438 490.1 433.5 491.7 427.8 492.6 427.6 493.6 427.9 494.9 428.5 494.1 435 492.9 442.4 491.3 450.6 482.8 450.2 477.3 450 474.8 450L445.3 450C443.9 450 441.1 450.1 436.9 450.3 432.7 450.5 429.5 450.6 427.3 450.6 426.9 450.2 426.7 449.7 426.7 449 426.7 448.4 426.9 447.9 427.3 447.4 430 447.3 432 447.1 433.3 446.9 434.6 446.7 435.7 446.2 436.8 445.3 437.8 444.4 438.5 443.2 438.8 441.6 439.1 440 439.3 437.8 439.3 434.9 439.6 423.4 439.7 413.6 439.7 405.5 439.7 397.2 439.6 387.2 439.3 375.7 439.2 372.7 439 370.4 438.7 368.9 438.5 367.3 437.8 366.1 436.8 365.2 435.7 364.3 434.6 363.8 433.3 363.6 432 363.4 430 363.2 427.3 363.1 426.9 362.7 426.7 362.1 426.7 361.5 426.7 360.8 426.9 360.3 427.3 359.9 429.3 359.9 432.1 360.1 435.8 360.3 439.5 360.5 442.6 360.6 445.1 360.6 447.7 360.6 450.9 360.5 454.6 360.3 458.4 360.1 461.2 359.9 463.1 359.9 463.5 360.3 463.8 360.8 463.8 361.5 463.8 362.1 463.6 362.7 463.1 363.1 460.4 363.2 458.4 363.4 457.1 363.6 455.9 363.8 454.8 364.3 453.7 365.2 452.7 366.1 452 367.4 451.7 368.9 451.4 370.4 451.2 372.7 451.1 375.7 450.8 385 450.7 394.9 450.7 405.6 450.7 407.5 450.8 417.3 451.1 434.9L451.1 434.9 451.1 434.9ZM529.9 447.5C529.9 447.5 529.9 447.5 529.8 447.4 527.1 447.4 525.1 447.2 523.9 447 522.6 446.7 521.5 446.2 520.4 445.3 519.4 444.4 518.7 443.2 518.4 441.6 518.2 440.1 518 437.8 517.9 434.9 517.6 423.4 517.5 413.7 517.5 405.6 517.5 395 517.6 385 517.9 375.7 518 372.7 518.2 370.4 518.4 368.9 518.7 367.4 519.4 366.2 520.5 365.3 521.5 364.5 522.7 363.9 523.8 363.7 525 363.5 527 363.3 529.8 363.1 529.9 363 530 362.9 530.1 362.8 530.2 363.1 530.3 363.3 530.5 363.5 536.8 363.9 540.9 367.3 542.8 373.8L542.6 433.3C542.6 436.5 542.5 438.9 542.2 440.6 541.9 442.3 541.2 443.7 540 444.6 538.9 445.6 537.7 446.3 536.3 446.6 535 446.9 532.8 447.2 529.9 447.4 529.9 447.5 529.9 447.5 529.9 447.5L529.9 447.5ZM529.9 450.6C529.9 450.6 529.9 450.6 529.8 450.6 523.5 450.2 517.6 450 512 450 509 450 503 450.2 494 450.6 493.6 450.2 493.4 449.7 493.4 449 493.4 448.4 493.6 447.9 494 447.4 496.7 447.3 498.7 447.1 500 446.9 501.3 446.7 502.4 446.2 503.5 445.3 504.6 444.4 505.2 443.2 505.6 441.6 505.9 440 506.1 437.8 506.1 434.9 506.4 423.4 506.5 413.6 506.5 405.5 506.5 397.2 506.4 387.3 506.1 375.7 506.1 373.7 506 372.1 505.8 370.8 505.7 369.5 505.4 368.4 504.9 367.5 504.5 366.5 504.1 365.8 503.7 365.3 503.3 364.9 502.5 364.5 501.3 364.2 500.2 363.8 499.2 363.6 498.3 363.5 497.4 363.4 496 363.3 494 363.1 493.6 362.7 493.4 362.1 493.4 361.5 493.4 360.8 493.6 360.3 494 359.9 501.4 360.3 507.4 360.6 511.9 360.6 515.3 360.6 521.3 360.3 529.8 359.9 530 360.1 530.2 360.3 530.3 360.6 530.4 360.5 530.4 360.4 530.5 360.3L549.4 360.6 599.5 421.8C600.2 422.6 600.9 423.5 601.7 424.5 602.6 425.6 603.2 426.3 603.5 426.8 603.9 427.3 604.3 427.7 604.7 428.2 605.2 428.7 605.5 429 605.8 429.2 606 429.4 606.3 429.4 606.5 429.4 607.7 429.4 608.3 428.1 608.3 425.3L608.2 377.2C608.2 374 608 371.5 607.7 369.8 607.4 368.1 606.7 366.7 605.5 365.7 604.3 364.8 603.1 364.2 601.8 363.9 600.5 363.6 598.4 363.3 595.4 363.1 595 362.7 594.8 362.1 594.8 361.5 594.8 360.8 595 360.3 595.4 359.9 597.7 359.9 600.4 360.1 603.4 360.3 606.4 360.5 609 360.6 611.1 360.6 613.2 360.6 615.8 360.5 618.9 360.3 621.9 360.1 624.6 359.9 626.9 359.9 627.3 360.3 627.5 360.8 627.5 361.5 627.5 362.1 627.3 362.7 626.9 363.1 624 363.3 621.8 363.6 620.5 364 619.1 364.3 617.9 364.9 616.7 365.9 615.6 366.9 614.9 368.2 614.6 369.9 614.3 371.6 614.2 374.1 614.2 377.2L614 447 614 447.9 614 448.7C614 448.8 614 449.1 614 449.3 614 449.6 613.9 449.8 613.9 450 613.9 450.1 613.9 450.2 613.8 450.4 613.8 450.6 613.7 450.7 613.6 450.8 613.5 450.9 613.4 451 613.3 451.1 613.2 451.2 613 451.2 612.8 451.3 612.7 451.3 612.5 451.3 612.2 451.3 610.1 451.3 608.1 450.2 606.4 448L555.4 386.9C552.9 383.8 551.2 382.3 550.4 382.4 549.1 382.4 548.5 384.6 548.5 389.1L548.6 433.3C548.6 436.5 548.8 439 549.1 440.7 549.4 442.5 550.1 443.8 551.2 444.8 552.4 445.7 553.6 446.4 554.9 446.6 556.2 446.9 558.4 447.2 561.3 447.4 561.8 447.9 562 448.4 562 449 562 449.7 561.8 450.2 561.3 450.6 559 450.6 556.4 450.5 553.4 450.3 550.4 450.1 547.8 450 545.7 450 543.6 450 541 450.1 537.9 450.3 534.9 450.5 532.2 450.6 529.9 450.6 529.9 450.6 529.9 450.6 529.9 450.6L529.9 450.6Z" class="b"/><path d="M229.7 434.9C229.8 437.8 230 440.1 230.3 441.6 230.6 443.2 231.2 444.4 232.3 445.3 233.3 446.2 234.4 446.7 235.7 447 236.9 447.2 238.9 447.4 241.7 447.4 242.1 447.9 242.3 448.4 242.3 449 242.3 449.7 242.1 450.2 241.7 450.6 235.4 450.2 229.4 450 223.8 450 220.8 450 214.8 450.2 205.8 450.6 205.4 450.2 205.2 449.7 205.2 449 205.2 448.4 205.4 447.9 205.8 447.4 208.6 447.3 210.6 447.1 211.8 446.9 213.1 446.7 214.3 446.2 215.3 445.3 216.4 444.4 217.1 443.2 217.4 441.6 217.7 440 217.9 437.8 217.9 434.9 218.2 423.4 218.3 413.6 218.3 405.5 218.3 397.2 218.2 387.3 217.9 375.7 217.9 373.7 217.8 372.1 217.6 370.8 217.5 369.5 217.2 368.4 216.8 367.5 216.3 366.5 215.9 365.8 215.5 365.3 215.1 364.9 214.3 364.5 213.1 364.2 212 363.8 211 363.6 210.1 363.5 209.2 363.4 207.8 363.3 205.8 363.1 205.4 362.7 205.2 362.1 205.2 361.5 205.2 360.8 205.4 360.3 205.8 359.9 213.2 360.3 219.2 360.6 223.7 360.6 227.2 360.6 233.1 360.3 241.7 359.9 242.1 360.3 242.3 360.8 242.3 361.5 242.3 362.1 242.1 362.7 241.7 363.1 238.8 363.3 236.8 363.5 235.6 363.7 234.5 363.9 233.4 364.5 232.3 365.3 231.2 366.2 230.6 367.4 230.3 368.9 230 370.4 229.8 372.7 229.7 375.7 229.4 385 229.3 395 229.3 405.6 229.3 413.7 229.4 423.4 229.7 434.9L229.7 434.9 229.7 434.9ZM291.1 434.9C291.2 440.4 292 443.8 293.4 445.2 294.9 446.5 298.1 447.3 303.2 447.4 304.2 448.6 304.2 449.6 303.2 450.6 301.1 450.6 298.3 450.5 294.6 450.3 290.9 450.1 287.8 450 285.3 450 282.7 450 279.6 450.1 275.8 450.3 272.1 450.5 269.3 450.6 267.3 450.6 267 450.2 266.8 449.6 266.8 449 266.8 448.3 267 447.8 267.3 447.4 272.4 447.3 275.7 446.5 277 445.2 278.4 443.8 279.1 440.4 279.2 434.9 279.6 419.5 279.8 409.7 279.8 405.5 279.8 401 279.6 391 279.2 375.7 279.1 370.1 278.4 366.7 277 365.3 275.7 364 272.4 363.3 267.3 363.1 267 362.6 266.8 362.1 266.8 361.4 266.8 360.8 267 360.3 267.3 359.9 269.3 359.9 272.2 360 275.8 360.2 279.5 360.5 282.6 360.6 285 360.6 287.6 360.6 290.8 360.5 294.6 360.2 298.4 360 301.2 359.9 303.2 359.9 304.2 361 304.2 362.1 303.2 363.1 298.1 363.3 294.8 364 293.4 365.3 292 366.7 291.2 370.1 291.1 375.7 290.9 386.2 290.7 395.1 290.7 402.6 295.8 402.2 300 400.2 303.3 396.4L325.5 372.1C327.5 370 328.3 368.4 327.8 367.1 327.3 365.8 326.4 364.9 325.1 364.3 323.8 363.7 322.2 363.3 320.2 363.1 319.9 362.6 319.7 362.1 319.7 361.4 319.7 360.8 319.9 360.3 320.2 359.9 322.3 359.9 325 360 328.5 360.2 331.9 360.5 334.7 360.6 336.6 360.6 338.5 360.6 340.9 360.5 343.8 360.2 346.7 360 349.1 359.9 351.1 359.9 352.2 361 352.2 362.1 351.1 363.1 343.7 364 337.4 367.2 332.3 372.6L311.9 393.5C308.7 396.9 307.1 399.1 307.1 400.4 307.1 401.3 307.7 402.4 308.9 403.8L339.2 439.8C342.6 444 347.1 446.5 352.8 447.4 353.9 448.6 353.9 449.6 352.8 450.6 350.8 450.6 348.2 450.5 345 450.3 341.8 450.1 339.3 450 337.4 450 335.8 450 334.5 450.1 333.4 450.3 332.3 450.5 331.4 450.6 330.8 450.6 330.3 450.6 330.1 450.4 330.1 449.8 329.7 447.1 328.1 443.7 325.1 439.8L303.3 412.4C300.2 408.6 296 406.6 290.7 406.4 290.7 414.3 290.9 423.8 291.1 434.9L291.1 434.9 291.1 434.9ZM398.7 434.9C398.8 437.8 399 440.1 399.3 441.6 399.5 443.2 400.2 444.4 401.3 445.3 402.3 446.2 403.4 446.7 404.7 447 405.9 447.2 407.9 447.4 410.7 447.4 411.1 447.9 411.3 448.4 411.3 449 411.3 449.7 411.1 450.2 410.7 450.6 404.3 450.2 398.4 450 392.8 450 389.8 450 383.8 450.2 374.8 450.6 374.4 450.2 374.2 449.7 374.2 449 374.2 448.4 374.4 447.9 374.8 447.4 377.6 447.3 379.6 447.1 380.8 446.9 382.1 446.7 383.2 446.2 384.3 445.3 385.4 444.4 386.1 443.2 386.4 441.6 386.7 440 386.9 437.8 386.9 434.9 387.2 423.4 387.3 413.6 387.3 405.5 387.3 397.2 387.2 387.3 386.9 375.7 386.9 373.7 386.8 372.1 386.6 370.8 386.5 369.5 386.2 368.4 385.8 367.5 385.3 366.5 384.9 365.8 384.5 365.3 384.1 364.9 383.3 364.5 382.1 364.2 381 363.8 380 363.6 379.1 363.5 378.2 363.4 376.8 363.3 374.8 363.1 374.4 362.7 374.2 362.1 374.2 361.5 374.2 360.8 374.4 360.3 374.8 359.9 382.2 360.3 388.2 360.6 392.7 360.6 396.2 360.6 402.1 360.3 410.7 359.9 411.1 360.3 411.3 360.8 411.3 361.5 411.3 362.1 411.1 362.7 410.7 363.1 407.8 363.3 405.8 363.5 404.6 363.7 403.5 363.9 402.3 364.5 401.3 365.3 400.2 366.2 399.5 367.4 399.3 368.9 399 370.4 398.8 372.7 398.7 375.7 398.4 385 398.3 395 398.3 405.6 398.3 413.7 398.4 423.4 398.7 434.9L398.7 434.9 398.7 434.9Z" class="a"/><path d="M216 317.7C216 318.5 215.8 319.2 215.3 319.8 214.8 320.5 214.3 320.8 213.7 320.8 209 321.2 205.1 322.8 202.1 325.4 199.1 327.9 196 332.9 192.8 340.2L144 450.7C143.7 451.8 142.8 452.3 141.3 452.3 140.1 452.3 139.2 451.8 138.6 450.7L111.2 393.2 79.7 450.7C79.1 451.8 78.2 452.3 77 452.3 75.6 452.3 74.7 451.8 74.2 450.7L26.2 340.2C23.3 333.3 20.1 328.6 16.8 325.8 13.4 323.1 8.8 321.4 2.9 320.8 2.4 320.8 1.9 320.5 1.4 320 1 319.4 0.8 318.8 0.8 318.1 0.8 316.3 1.3 315.4 2.3 315.4 6.6 315.4 11 315.6 15.7 316 20.1 316.4 24.1 316.6 28 316.6 31.9 316.6 36.5 316.4 41.8 316 47.3 315.6 52.2 315.4 56.5 315.4 57.5 315.4 58.1 316.3 58.1 318.1 58.1 319.9 57.7 320.8 57.1 320.8 52.8 321.1 49.5 322.2 47 324.1 44.5 325.9 43.3 328.3 43.3 331.4 43.3 332.9 43.8 334.8 44.8 337.1L84.5 427.1 107 384.4 86 340.2C82.3 332.3 79.2 327.2 76.7 325 74.3 322.7 70.6 321.3 65.7 320.8 65.3 320.8 64.8 320.5 64.4 320 64 319.4 63.8 318.8 63.8 318.1 63.8 316.3 64.2 315.4 65.1 315.4 69.4 315.4 73.3 315.6 76.9 316 80.4 316.4 84 316.6 87.9 316.6 91.8 316.6 95.8 316.4 100.1 316 104.5 315.6 108.8 315.4 113.1 315.4 114.1 315.4 114.7 316.3 114.7 318.1 114.7 319.9 114.4 320.8 113.7 320.8 105.2 321.4 100.9 323.8 100.9 328.1 100.9 330 101.9 333 103.8 337L117.7 365.3 131.5 339.4C133.4 335.8 134.4 332.7 134.4 330.2 134.4 324.3 130.1 321.2 121.6 320.8 120.8 320.8 120.4 319.9 120.4 318.1 120.4 317.5 120.6 316.8 121 316.3 121.4 315.7 121.8 315.4 122.1 315.4 125.2 315.4 129 315.6 133.4 316 137.7 316.4 141.2 316.6 144 316.6 145.9 316.6 148.9 316.4 152.7 316.1 157.5 315.6 161.6 315.4 164.9 315.4 165.6 315.4 166 316.2 166 317.7 166 319.8 165.3 320.8 163.9 320.8 158.9 321.3 154.9 322.7 151.9 324.9 148.8 327.2 145.1 332.3 140.5 340.2L122.1 374.4 147 425.3 183.8 339.4C185.1 336.3 185.7 333.4 185.7 330.8 185.7 324.5 181.5 321.2 172.9 320.8 172.1 320.8 171.7 319.9 171.7 318.1 171.7 316.3 172.3 315.4 173.5 315.4 176.6 315.4 180.3 315.6 184.6 316 188.5 316.4 191.9 316.6 194.5 316.6 197.4 316.6 200.6 316.4 204.3 316 208.2 315.6 211.6 315.4 214.7 315.4 215.6 315.4 216 316.2 216 317.7L216 317.7 216 317.7Z" class="a"/></g></svg>
