<svg version="1" xmlns="http://www.w3.org/2000/svg" width="906.667" height="906.667" viewBox="0 0 680.000000 680.000000"><path d="M149.6 1.8c-.2.1-3.7.4-7.8.7-6.3.3-10 .9-18.8 3-3.1.8-13.5 4.7-14 5.3-.3.4-1.4.9-2.5 1-1.1.2-2.1.8-2.3 1.3-.2.5-.8.9-1.3.9-1 0-10.7 6-13.6 8.3-7.9 6.5-20 19.8-22.9 25.2-.6 1.1-2.6 4.7-4.4 8-4.5 8.2-7.4 16.9-9.8 29-.9 4.8-.8 506.5.2 512 .4 2.7 1 5.3 1.2 5.6.2.3.6 2.1.9 3.9.3 1.8.9 3.8 1.3 4.4.3.6.7 1.5.8 2.1.1.5 1.7 4.1 3.4 8 9.1 19.5 24.3 35.7 43 45.8 6.4 3.5 21.2 8.9 28 10.3 2.9.6 58.9 1.8 66.8 1.5 1.2-.1 2.9-.1 3.7-.1h4c1.4 0 3.3-.1 4.3-.1 3.2-.1 78.7-.1 80 0 .6 0 2.3.1 3.7.1h4c3.6 0 7.1-.1 8.5-.1.8 0 2 0 2.5.1.6.1 19.3.2 41.8.1l40.7-.1V558.1c0-129.5.3-122.6-5.2-121.9-1.2.2-5 1.6-8.3 3.2-27.9 13-54.2 16.2-73.5 9.1-2.5-.9-5.4-1.9-6.5-2.2-3.6-1.1-14.9-9-20.4-14.4-2.9-3-7.3-8.1-9.7-11.4-4.5-6.4-4.2-6.2-15.9-9-8.6-2-31.7-14.2-38.5-20.3-18-16.1-24.3-28.1-24.3-46.7 0-6-.8-7.5-3.9-7.5-3.1 0-13.4-6.8-19.3-12.7-17.2-17.3-26.2-41.9-22.4-61.7 4.2-22.2 26.7-37.9 61-42.5.3-.1.9-4.5 1.2-9.9.3-5.3 1.3-12.2 2.2-15.2 1.9-6.5 7.7-18 10.8-21.7 4.5-5.3 9.3-10 13.2-13 6.7-5.1 22.5-12.8 28.5-13.9.3 0 1.2-.3 2-.7.8-.3 3.8-1 6.5-1.6 10.4-2.2 16.5-3 29.9-3.6l10.8-.6 8.5-8.2c13.4-12.9 17.3-16.4 22.7-20.2 1.6-1.1 3.4-2.5 4-3 1.2-1 2.7-1.9 10.3-6.2 4.8-2.6 15.7-7 19.5-7.7 1.3-.2 4.1-.8 6.3-1.3s5.4-.9 7-.9l3 .1.5 172.9.5 172.8 9 2.7c5 1.5 9.3 2.7 9.8 2.8.4.1 2.1.5 3.8.8 13.3 2.9 34.2 3.6 44.6 1.5 3.2-.7 6.3-1.3 6.8-1.4 2.3-.4 9.4-3 14.4-5.3 11.3-5.1 25.1-16.5 34.7-28.8 2.1-2.8 4.1-5.2 4.4-5.5.9-.8 15-23 15-23.6 0-.2 2.5-4.2 5.5-8.9 3.6-5.5 6.3-8.6 7.8-8.9 8.5-1.7 22.1-5.2 26.7-6.8 5.4-1.9 19.6-8.6 23.5-11 3.4-2.2 12.9-10.2 14.3-12 .7-.9 1.8-2.3 2.5-3 3.1-3.2 7.6-10.8 9.6-16.3 4.7-13.2 5.6-27.1 2.6-40.5-.3-1.4-.8-3.6-1.1-5-.3-1.4-.8-3.4-1.1-4.5-.4-1.1-.7-2.2-.8-2.5-.4-2.3-5-13.2-5.6-13.6-.5-.3-.9-1.4-.9-2.5 0-1-.4-1.9-1-1.9-.5 0-1-.6-1-1.4 0-1.8-8.8-15.3-13-19.8-1.9-2-3.5-4.5-3.6-5.5-.2-1.5-1.5-7.7-1.9-9.3-1-4-6.6-18.3-7.4-19-.4-.3-1.1-1.6-1.7-3-3.3-7.3-16.1-21.2-24.9-26.9-2.2-1.4-4.2-2.9-4.5-3.2-2.4-3.1-29.9-13.3-38.5-14.4-11.1-1.4-13.2-1.8-15-3.3-2.5-2.2-2.5-2.2-12.3-9.3-15-10.9-40.1-25.1-48.4-27.4-.5-.2-1-.4-1.3-.5-.3-.1-.8-.3-1.2-.5-.5-.1-1.5-.4-2.3-.8-7.2-2.9-27.5-7.9-28.4-6.9-.3.2-1.2-.1-2-.7-1-.8-1.6-.9-2.1-.1-.3.6-1.1.8-1.6.5-.5-.4-3.8-.7-7.4-.7l-6.5-.1V2l-120.6-.2c-66.3-.2-120.7-.2-120.8 0zm145.1 474.1c1 .6 3.5 1.7 5.5 2.6 7.1 3.2 14.8 12.8 17.6 21.9.4 1.2.6 5.9.6 10.6-.1 7.1-.5 9.4-2.8 14.2-3.6 7.3-10.4 14.2-17.5 17.5-4.8 2.3-6.9 2.7-15.1 2.7-8.5 0-10.1-.3-15.3-2.8-22.9-11.5-27.5-40.6-9.4-58.7 3.1-3.1 8.8-6.6 12.2-7.6.6-.1 2.6-.7 4.5-1.2 4.1-1.2 17.1-.6 19.7.8zm-65.8 62.2c7.7 4.5 10.2 12 6.2 18.4-6.5 10.5-16.8 12.3-24.8 4.5-7.6-7.5-6.2-18.4 3-22.9 4.4-2.2 11.9-2.2 15.6 0zm-37.7 30.1c5.5 3.8 4.3 14.5-1.9 16.9-9.4 3.6-17.4-5.3-12.7-14.2 2.5-5 9.6-6.3 14.6-2.7z"/></svg>